<svg xmlns="http://www.w3.org/2000/svg" xml:space="preserve" viewBox="0 0 512 512"><path d="M230.4 78.29v36.91c0 14.14 11.46 25.6 25.6 25.6s25.6-11.46 25.6-25.6V78.29c99.72 11.69 178.82 90.79 190.51 190.51H435.2c-14.14 0-25.6 11.46-25.6 25.6s11.46 25.6 25.6 25.6h36.84c-5.7 46.52-26.71 88.28-57.33 121.36-7.2 7.78-6.74 19.93 1.05 27.13 7.78 7.2 19.93 6.74 27.13-1.05C484.93 422.03 512 361.79 512 294.4c0-141.39-114.62-256-256-256-141.39 0-256 114.61-256 256 0 67.39 27.07 127.63 69.11 173.04 7.2 7.78 19.35 8.25 27.13 1.05s8.25-19.35 1.05-27.13C66.67 408.28 45.66 366.52 39.96 320H76.8c14.14 0 25.6-11.46 25.6-25.6s-11.46-25.6-25.6-25.6H39.89c4.8-40.91 20.94-78.36 45.2-109.1l24.8 24.8c10 10 26.21 10 36.2 0 10-10 10-26.21 0-36.2l-24.8-24.8c30.75-24.27 68.19-40.42 109.11-45.21m147.43 78.74c-6.1-4.72-14.76-4.56-20.67.39l-5.56 4.67c-3.54 2.98-8.61 7.24-14.74 12.4a9628 9628 0 0 0-45.47 38.57c-16.78 14.34-33.97 29.15-47.69 41.27-6.85 6.05-12.9 11.49-17.63 15.89-4.4 4.09-8.51 8.07-10.75 10.83-16.72 20.68-13.14 50.69 7.99 67.05 21.13 16.35 51.81 12.85 68.53-7.82 2.24-2.77 5.25-7.6 8.3-12.72 3.29-5.51 7.31-12.53 11.75-20.44 8.9-15.85 19.68-35.62 30.08-54.9 10.4-19.29 20.46-38.14 27.91-52.17 3.72-7.01 6.8-12.82 8.94-16.88l3.36-6.37c3.57-6.76 1.75-15.05-4.35-19.77" style="fill:#212121"/></svg>