<svg xmlns="http://www.w3.org/2000/svg" xml:space="preserve" viewBox="0 0 512 512"><path d="M500.6 84.3c-34.8-23-80-36.3-129.4-36.4C328.3 48 288.5 58 256 75.8 223.5 58 183.7 48 140.8 48 91.4 48 46.2 61.3 11.4 84.3 4.3 89 0 97.1 0 105.6v332.8c0 9.5 5.2 18.1 13.5 22.6s18.4 4 26.3-1.2c25-16.7 61-27.9 101-27.8 40-.1 75.9 11.1 100.9 27.7.3.2.6.4.9.5.1 0 .2.1.2.1.2.1.4.3.7.4.2.1.3.2.5.3s.3.2.5.2c.2.1.5.2.7.3 0 0 .1 0 .1.1.1 0 .2.1.3.1.3.1.5.2.8.3.1.1.3.1.4.2.3.1.5.2.8.3.2.1.3.1.5.2s.4.1.7.2c.2.1.4.1.6.2s.4.1.6.2.5.1.7.2c.2 0 .3.1.5.1.3.1.5.1.8.1.1 0 .3 0 .4.1.3 0 .6.1.9.1h.3c.3 0 .6 0 .8.1h3.3c.3 0 .6 0 1-.1h.3c.3 0 .7-.1 1-.1.1 0 .2 0 .4-.1.3 0 .6-.1.9-.2.2 0 .3-.1.5-.1.3-.1.5-.1.8-.2.2 0 .4-.1.5-.1.2-.1.4-.1.7-.2.2-.1.4-.1.6-.2s.4-.1.6-.2.5-.2.7-.3.3-.1.5-.2c.3-.1.5-.2.8-.3.1-.1.2-.1.3-.2h.1c.3-.1.5-.3.8-.4h.1c.1 0 .1 0 .2-.1.1 0 .1-.1.2-.1.2-.1.4-.2.5-.3l.6-.3c.1-.1.2-.1.3-.2.3-.2.5-.3.8-.5 25-16.6 60.9-27.8 100.9-27.7 40.1 0 76 11.1 101 27.8 7.9 5.2 17.9 5.7 26.3 1.2 8.3-4.5 13.5-13.1 13.5-22.6V105.6c-.6-8.5-4.9-16.6-12-21.3M51.2 396.8V120.1c24-12.8 55.3-21 89.6-21s65.6 8.1 89.6 21v276.7c-26.9-10.3-57.4-16-89.6-16s-62.7 5.7-89.6 16m230.4 0V120.1c24-12.8 55.3-21 89.6-21s65.6 8.1 89.6 21v276.7c-26.9-10.3-57.4-16-89.6-16s-62.7 5.7-89.6 16"/></svg>